<?xml version="1.0" encoding="UTF-8"?>
<svg id="_レイヤー_1" data-name="レイヤー_1" xmlns="http://www.w3.org/2000/svg" version="1.1" viewBox="0 0 24 24">
  <!-- Generator: Adobe Illustrator 30.3.0, SVG Export Plug-In . SVG Version: 2.1.3 Build 182)  -->
  <defs>
    <style>
      .st0 {
        fill: #fff;
      }
    </style>
  </defs>
  <path id="Ou2ZgRUBgtCFkza1qodlw" class="st0" d="M6.3,9.7c-.8.4-.8,1.5,0,1.9.7.4,1.5-.1,1.5-.9s-.8-1.3-1.5-.9v-.1Z" vector-effect="non-scaling-stroke"/>
  <path id="p4ujW3vLAS7ZoG7vRM-bz" class="st0" d="M18.4,10.3c.5.2.6.5.6,1.7s0,.9-.1,1.1c-.1.3-.3.5-.6.6h-7.6l-.2-.2c-.1,0-.3-.2-.4-.4-.1-.2-.1-.3-.1-1.2s0-1,.1-1.2c0-.1.2-.3.4-.4h.2c0-.1,3.8-.1,3.8-.1h4l-.1.1ZM11.3,12v.4h2.1v-.7h-2.1v.4-.1Z" vector-effect="non-scaling-stroke"/>
  <path id="FuzsSgcA7Xpin4MYUHzHr" class="st0" d="M6,12.4c-.4.1-.7.4-.9.8-.2.5-.1,1,.2,1.1.3.1,2.5.1,2.8,0,.6-.3.4-1.4-.4-1.9-.2-.1-.4-.1-.9-.1h-.8v.1Z" vector-effect="non-scaling-stroke"/>
  <path id="FFUJJN9ATDirxHe2QkhOo" class="st0" d="M6.3,15.7c-.8.4-.8,1.5,0,1.9.7.4,1.5-.1,1.5-.9s-.8-1.3-1.5-.9v-.1Z" vector-effect="non-scaling-stroke"/>
  <path id="_-UspU2Qxcu1Kd-EpGp_uk" class="st0" d="M10.5,16.4c-.5.2-.6.5-.6,1.7s0,.9.1,1.1c.1.3.3.5.6.6h7.6l.2-.2c.4-.3.5-.5.5-1.6s0-1.3-.5-1.6l-.2-.2h-7.8l.1.2ZM17.7,18v.4h-4.9v-.7h4.9v.4-.1Z" vector-effect="non-scaling-stroke"/>
  <path id="xV3WOd7f1z-KA16tqkNHq" class="st0" d="M6,18.4c-.8.3-1.3,1.1-1,1.7.2.3.3.4,1.6.4h1.4c.2,0,.4-.4.4-.6s-.2-.8-.4-1c-.4-.3-.5-.4-1.2-.4h-.8v-.1Z" vector-effect="non-scaling-stroke"/>
  <path id="IOAgxWfvRhiytB1k7_Vm7" class="st0" d="M6.3,3.6c-.8.4-.8,1.5,0,1.9.7.4,1.5-.1,1.5-.9s-.8-1.3-1.5-.9v-.1Z" vector-effect="non-scaling-stroke"/>
  <path id="ZGMh4VSEmoLMfr9qNbW3Z" class="st0" d="M10.5,4.3c-.5.2-.6.5-.6,1.7s0,.9.1,1.1c.1.3.3.5.6.6h7.6l.2-.2c.1,0,.3-.2.4-.4.1-.2.1-.3.1-1.2s0-1-.1-1.2c0-.1-.2-.3-.4-.4h-.2c0-.1-3.8-.1-3.8-.1h-4l.1.1ZM17.7,6v.4h-2.1v-.7h2.1v.4-.1Z" vector-effect="non-scaling-stroke"/>
  <path class="st0" d="M6,6.4c-.4.1-.7.4-.9.8-.2.5-.1,1,.2,1.1.3.1,2.5.1,2.8,0,.6-.3.4-1.4-.4-1.9-.2-.1-.4-.1-.9-.1h-.8v.1Z" vector-effect="non-scaling-stroke"/>
</svg>